HIERARCHY
ROOT Hips
{
	OFFSET 0.00000 0.00000 0.00000
	CHANNELS 6 Xposition Yposition Zposition Zrotation Yrotation Xrotation 
	JOINT LHipJoint
	{
		OFFSET 0 0 0
		CHANNELS 3 Zrotation Yrotation Xrotation
		JOINT LeftHip
		{
			OFFSET 1.65412 -1.54119 0.76744
			CHANNELS 3 Zrotation Yrotation Xrotation
			JOINT LeftKnee
			{
				OFFSET 2.19550 -6.03209 0.00000
				CHANNELS 3 Zrotation Yrotation Xrotation
				JOINT LeftAnkle
				{
					OFFSET 2.38814 -6.56138 0.00000
					CHANNELS 3 Zrotation Yrotation Xrotation
					JOINT LeftToe
					{
						OFFSET 0.17337 -0.47632 1.75875
						CHANNELS 3 Zrotation Yrotation Xrotation
						End Site
						{
							OFFSET 0.00000 -0.00000 0.92050
						}
					}
				}
			}
		}
	}
	JOINT RHipJoint
	{
		OFFSET 0 0 0
		CHANNELS 3 Zrotation Yrotation Xrotation
		JOINT RightHip
		{
			OFFSET -1.40291 -1.54119 0.76744
			CHANNELS 3 Zrotation Yrotation Xrotation
			JOINT RightKnee
			{
				OFFSET -2.22156 -6.10370 0.00000
				CHANNELS 3 Zrotation Yrotation Xrotation
				JOINT RightAnkle
				{
					OFFSET -2.46840 -6.78188 0.00000
					CHANNELS 3 Zrotation Yrotation Xrotation
					JOINT RightToe
					{
						OFFSET -0.15659 -0.43024 1.84117
						CHANNELS 3 Zrotation Yrotation Xrotation
						End Site
						{
							OFFSET -0.00000 -0.00000 0.95587
						}
					}
				}
			}
		}
	}
	JOINT lowerback
	{
		OFFSET 0 0 0
		CHANNELS 3 Zrotation Yrotation Xrotation
		JOINT Chest
		{
			OFFSET -0.01936 1.82120 -0.32061
			CHANNELS 3 Zrotation Yrotation Xrotation
			JOINT Chest2
			{
				OFFSET -0.00532 1.85767 -0.00071
				CHANNELS 3 Zrotation Yrotation Xrotation
				JOINT lowerneck
				{
					OFFSET 0 0 0
					CHANNELS 3 Zrotation Yrotation Xrotation
					JOINT Neck
					{
						OFFSET -0.10687 1.58194 0.10810
						CHANNELS 3 Zrotation Yrotation Xrotation
						JOINT Head
						{
							OFFSET 0.15346 1.57382 -0.25612
							CHANNELS 3 Zrotation Yrotation Xrotation
							End Site
							{
								OFFSET 0.05334 1.61251 -0.10513
							}
						}
					}
				}
				JOINT LeftCollar
				{
					OFFSET 0 0 0
					CHANNELS 3 Zrotation Yrotation Xrotation
					JOINT LeftShoulder
					{
						OFFSET 2.85758 0.89498 -0.01485
CHANNELS 3 Zrotation Xrotation Yrotation
						JOINT LeftElbow
						{
OFFSET 0 -4.791850 -0.000000
CHANNELS 3 Zrotation Xrotation Yrotation
							JOINT LeftWrist
							{
OFFSET 0 -2.655530 0.000000
CHANNELS 3 Zrotation Xrotation Yrotation
								JOINT lhand
								{
									OFFSET 0 0 0
CHANNELS 3 Zrotation Xrotation Yrotation
									JOINT LFingers
									{
OFFSET 0 -0.743900 0.000000
CHANNELS 3 Zrotation Xrotation Yrotation
										End Site
										{
OFFSET 0 -0.599750 0.000000
										}
									}
								}
								JOINT LThumb
								{
OFFSET 0 0.000000 0.000000
CHANNELS 3 Zrotation Xrotation Yrotation
									End Site
									{
OFFSET 0 -0.608910 0.608910
									}
								}
							}
						}
					}
				}
				JOINT RightCollar
				{
					OFFSET 0 0 0
					CHANNELS 3 Zrotation Yrotation Xrotation
					JOINT RightShoulder
					{
						OFFSET -2.93906 0.88031 0.02490
CHANNELS 3 Zrotation Xrotation Yrotation
						JOINT RightElbow
						{
OFFSET 0 -4.772540 -0.000000
CHANNELS 3 Zrotation Xrotation Yrotation
							JOINT RightWrist
							{
OFFSET 0 -2.759950 -0.000000
CHANNELS 3 Zrotation Xrotation Yrotation
								JOINT rhand
								{
									OFFSET 0 0 0
CHANNELS 3 Zrotation Xrotation Yrotation
									JOINT RFingers
									{
OFFSET 0 -0.701620 0.000000
CHANNELS 3 Zrotation Xrotation Yrotation
										End Site
										{
OFFSET 0 -0.565660 0.000000
										}
									}
								}
								JOINT RThumb
								{
OFFSET 0 0.000000 0.000000
CHANNELS 3 Zrotation Xrotation Yrotation
									End Site
									{
OFFSET 0 -0.574300 0.574300
									}
								}
							}
						}
					}
				}
			}
		}
	}
}
MOTION
Frames: 5
Frame Time: 0.008333333333333333
0.144412 15.549036 -2.669079 -2.427275 2.931727 19.411745 0.000000 0.000000 0.000000 -3.225768 -20.300756 -44.293815 4.135103 12.338011 36.938483 0.142934 1.155145 -7.662274 0.582662 -4.887706 -13.588412 0.000000 0.000000 0.000000 9.958585 19.162495 -43.574959 -4.565185 -12.876762 38.908723 -0.210098 -5.614595 -12.517054 -0.365788 3.885302 -10.754125 -2.063670 0.657125 36.045345 -1.268506 0.050409 12.130821 -0.271507 0.027269 -4.547137 -16.543675 -7.041835 -8.723834 19.027155 -8.561664 0.611564 8.125327 -3.874933 3.250500 0.000000 0.000000 0.000000 141.398322 -75.450016 74.569583 38.399581 -47.091177 17.258155 4.673141 6.468492 -22.929359 0.000000 0.000000 0.000000 -7.125000 0.000000 0.000000 -24.439183 51.291575 3.989306 0.000000 0.000000 0.000000 -67.167320 -30.167942 62.017041 -116.038200 -57.271875 -82.342556 32.753964 -17.957965 -9.141774 0.000000 0.000000 0.000000 7.125000 0.000000 0.000000 37.919153 17.994059 32.552135
0.178321 15.544500 -2.660259 -2.287271 1.808999 18.816115 0.000000 0.000000 0.000000 -4.004246 -19.561692 -43.574356 4.220008 12.447552 37.334103 0.168505 0.976264 -8.173976 0.550285 -4.752117 -13.202801 0.000000 0.000000 0.000000 9.801573 19.374482 -43.052584 -4.610175 -12.930895 39.110225 -0.235044 -5.005711 -12.374166 -0.388357 4.001618 -11.081244 -2.579768 0.491408 36.797336 -1.434194 -0.379040 11.989676 -0.029702 -0.184439 -4.948061 -16.097838 -6.676242 -8.871135 19.211138 -8.256146 1.966368 8.137074 -3.685604 3.605469 0.000000 0.000000 0.000000 105.979283 -71.311966 18.070404 31.361124 -42.031859 12.310891 -2.072045 -7.035195 -25.257403 0.000000 0.000000 0.000000 -7.125000 0.000000 0.000000 -32.065829 52.218032 6.226360 0.000000 0.000000 0.000000 -75.875517 -33.848392 42.419380 -139.917072 -48.116498 -101.498245 29.879665 -24.360624 -9.509336 0.000000 0.000000 0.000000 7.125000 0.000000 0.000000 36.627359 18.392735 30.178626
0.263876 15.538907 -2.641278 -1.387049 -0.146201 18.718567 0.000000 0.000000 0.000000 -5.877995 -18.447162 -43.114919 4.204758 12.427978 37.263305 0.178127 1.153802 -8.480263 0.549937 -4.750449 -13.198188 0.000000 0.000000 0.000000 8.124548 20.389073 -43.177404 -4.666536 -12.998103 39.361383 -0.226460 -4.710775 -11.969159 -0.445247 4.281441 -11.869803 -2.640462 0.860296 37.339135 -1.437469 -0.014845 11.279166 -0.133648 -0.007281 -5.914043 -14.828696 -6.959899 -8.920390 18.771565 -8.827626 2.604591 7.711570 -3.953086 3.821158 0.000000 0.000000 0.000000 79.514074 -62.326106 -33.999519 35.992455 -45.503697 15.518548 -7.552070 -20.305435 -28.634982 0.000000 0.000000 0.000000 -7.125000 0.000000 0.000000 -39.513836 54.015553 9.947029 0.000000 0.000000 0.000000 -90.179824 -42.034891 7.937073 -140.994173 -47.465460 -102.295550 22.096028 -30.515444 -9.034100 0.000000 0.000000 0.000000 7.125000 0.000000 0.000000 32.934613 20.124227 23.854017
0.344258 15.534962 -2.604316 -0.634022 -1.845874 18.582661 0.000000 0.000000 0.000000 -7.719521 -16.984190 -42.803744 4.204489 12.427684 37.262253 0.192104 0.935897 -8.674804 0.568146 -4.827209 -13.416449 0.000000 0.000000 0.000000 6.613327 21.468312 -43.105643 -4.718764 -13.059963 39.593186 -0.230907 -4.545105 -11.902367 -0.466400 4.380381 -12.149281 -1.726050 0.811851 36.644996 -1.380628 0.255118 11.656691 -0.640663 0.121357 -5.274408 -14.477387 -7.195861 -8.709178 18.713417 -9.097335 1.644409 7.610225 -4.116447 3.532184 0.000000 0.000000 0.000000 62.730841 -50.047243 -56.432571 50.833062 -53.313370 26.844223 -13.011823 -30.663410 -30.833222 0.000000 0.000000 0.000000 -7.125000 0.000000 0.000000 -46.224643 54.648802 13.033454 0.000000 0.000000 0.000000 -110.764472 -51.670569 -24.764535 -118.981462 -56.540318 -84.802877 17.950317 -19.598265 -10.396081 0.000000 0.000000 0.000000 7.125000 0.000000 0.000000 30.304602 19.308338 21.853528
0.375057 15.526892 -2.590351 0.321075 -3.228899 18.409344 0.000000 0.000000 0.000000 -9.573219 -15.450263 -42.641089 4.187308 12.405560 37.182183 0.196344 0.499958 -8.565007 0.523931 -4.638491 -12.880391 0.000000 0.000000 0.000000 4.961446 22.712665 -43.226272 -4.847570 -13.210035 40.159842 -0.225505 -4.739841 -11.977738 -0.539113 4.704394 -13.067243 -1.210765 1.403492 36.393066 -1.472501 1.135661 11.917609 -1.311484 0.548777 -4.893573 -14.103061 -7.951568 -7.941186 19.018690 -10.148503 0.567421 7.566603 -4.691919 3.269930 0.000000 0.000000 0.000000 55.013303 -40.303372 -61.388197 76.366567 -59.262587 48.223901 -17.489468 -41.714972 -33.532149 0.000000 0.000000 0.000000 -7.125000 0.000000 0.000000 -52.687039 55.654891 17.151166 0.000000 0.000000 0.000000 -127.936594 -56.741702 -43.502731 -71.305485 -58.589584 -43.891790 10.495729 -6.129162 -11.465796 0.000000 0.000000 0.000000 7.125000 0.000000 0.000000 25.626200 18.740913 17.915179
